<svg xmlns="http://www.w3.org/2000/svg" viewBox="0 0 1200 1200">
  <g transform="translate(0.000000,1081.000000) scale(0.100000,-0.100000)" fill="#ff66cc" stroke="none">
    <path d="M465 10795 c-244 -45 -372 -169 -443 -430 -26 -96 -23 -392 7 -565 54 -315 237 -905 352 -1131 65 -129 284 -492 521 -862 l88 -138 0 -97 c1 -196 39 -368 115 -516 40 -77 62 -138 89 -247 66 -258 140 -464 217 -600 35 -61 39 -76 39 -136 0 -200 45 -484 100 -634 80 -220 213 -391 378 -488 63 -37 175 -80 211 -81 9 -1 -6 -12 -33 -26 -127 -66 -208 -209 -261 -459 -18 -85 -32 -126 -64 -180 -44 -76 -82 -183 -101 -285 -6 -36 -32 -110 -57 -165 -66 -145 -100 -241 -118 -340 -26 -136 -7 -216 73 -308 23 -27 42 -52 42 -56 0 -4 -11 -41 -25 -82 -39 -114 -42 -193 -12 -322 25 -108 25 -109 7 -162 -43 -125 -32 -214 42 -340 37 -64 41 -78 50 -174 12 -141 28 -171 130 -242 22 -16 23 -25 29 -160 6 -145 18 -209 47 -241 8 -10 39 -31 68 -48 49 -27 57 -38 104 -129 122 -238 205 -331 295 -331 25 0 37 -5 42 -17 20 -60 76 -163 105 -192 18 -19 61 -47 94 -62 46 -21 72 -42 104 -81 48 -61 103 -108 175 -149 28 -15 79 -60 113 -99 107 -119 195 -146 300 -94 l52 26 92 -45 c163 -79 243 -100 393 -100 126 -1 133 0 240 38 99 35 121 39 214 40 l103 1 37 40 c20 22 84 99 142 170 320 389 579 780 874 1320 99 181 435 859 435 879 0 34 384 874 395 863 2 -2 -1 -86 -7 -188 -21 -391 3 -1190 47 -1498 36 -258 96 -348 150 -229 81 177 130 793 130 1644 0 232 3 419 6 415 4 -4 14 -41 24 -82 10 -41 46 -142 81 -223 38 -88 64 -162 64 -183 0 -37 18 -79 55 -129 13 -16 81 -160 151 -320 208 -472 480 -999 727 -1410 185 -309 565 -834 749 -1036 28 -31 100 -45 176 -34 39 5 61 1 138 -29 217 -84 405 -70 644 46 l104 51 47 -27 c99 -55 197 -23 304 98 31 36 81 80 110 96 65 37 143 106 176 155 17 26 45 47 96 72 47 22 83 48 103 73 26 33 76 130 94 183 4 12 16 17 44 17 81 0 160 87 265 287 71 138 77 145 148 186 68 39 81 77 88 260 l6 148 62 57 c34 31 67 68 74 82 7 13 14 67 17 120 4 89 7 100 48 175 76 142 87 224 45 348 -16 46 -16 59 -5 112 32 146 36 174 30 236 -3 37 -17 100 -31 140 -14 41 -25 77 -25 81 0 4 18 28 40 53 53 61 69 95 80 162 18 108 -21 267 -116 475 -31 67 -55 138 -70 212 -18 86 -36 136 -79 223 -41 80 -61 137 -75 203 -50 244 -140 404 -258 462 l-44 21 69 22 c150 47 290 152 389 291 136 191 214 472 229 824 6 131 10 158 26 182 63 87 157 344 229 621 28 106 56 187 85 245 80 161 116 314 116 506 l1 111 131 210 c458 735 488 793 628 1205 159 466 229 826 216 1110 -27 611 -461 768 -1288 467 -467 -170 -1059 -492 -1709 -928 -447 -299 -537 -376 -1046 -884 -534 -534 -896 -949 -1276 -1466 -328 -446 -636 -955 -789 -1302 l-44 -99 -12 91 c-7 49 -19 103 -27 120 -14 26 -14 30 1 42 9 8 29 34 45 58 56 88 29 157 -83 208 -68 31 -67 6 -8 224 115 434 361 967 630 1371 159 238 292 405 483 608 140 148 205 234 181 238 -26 6 -115 -86 -284 -293 -214 -261 -285 -353 -397 -520 -301 -447 -537 -962 -680 -1484 -19 -69 -38 -129 -43 -134 -22 -22 -45 17 -96 164 -139 409 -349 878 -550 1230 -101 176 -282 447 -391 584 -121 152 -323 351 -404 398 -82 47 -152 50 -135 5 3 -7 58 -40 122 -73 102 -52 129 -71 206 -149 405 -408 809 -1124 1073 -1900 85 -250 86 -256 66 -263 -99 -32 -152 -79 -152 -135 1 -32 34 -102 69 -145 l29 -36 -23 -51 c-14 -28 -30 -78 -36 -111 l-11 -59 -29 63 c-16 35 -34 81 -39 102 -6 21 -27 66 -47 101 -20 35 -70 124 -111 198 -523 949 -1336 1935 -2352 2854 -149 135 -283 234 -610 451 -639 424 -1250 752 -1714 920 -170 61 -429 134 -516 145 -111 13 -248 11 -335 -5z"></path>
  </g>
</svg>
